# xmcd
#
# Track frame offsets: 
#        150
#        13200
#        26535
#        45735
#        62610
#        75617
#        85329
#        99418
#        114551
#        126785
#
# Disc length: 1831 seconds
#
# Revision: 3
# Processed by: cddbd v1.5.2PL0 Copyright (c) Steve Scherf et al.
# Submitted via: ExactAudioCopyFreeDBPlugin 1.0
#
DISCID=7807250a
DTITLE=Hayseed Dixie - A Hillbilly Tribute To Mountain Love
DYEAR=2002
DGENRE=Bluegrass
TTITLE0=My Best Friend's Girl
TTITLE1=Centerfold
TTITLE2=Walk This Way
TTITLE3=Feel Like Making Love
TTITLE4=The Perfect Woman
TTITLE5=I Love Rock and Roll
TTITLE6=Fat Bottom Girls
TTITLE7=Big Bottom
TTITLE8=Cat Scratch Fever
TTITLE9=I'm Keeping Your Poop
EXTD=LABEL =Dualtone Music Group, Inc. - Hayseed Dixie\nID =803020111
EXTD=8-2\nUPC =803020-111820\nCOPYRIGHT =2002
EXTT0=
EXTT1=
EXTT2=
EXTT3=
EXTT4=
EXTT5=
EXTT6=
EXTT7=
EXTT8=
EXTT9=
PLAYORDER=
